<mxfile host="app.diagrams.net" modified="2023-12-04T17:05:28.206Z" agent="Mozilla/5.0 (Windows NT 10.0; Win64; x64) AppleWebKit/537.36 (KHTML, like Gecko) Chrome/119.0.0.0 Safari/537.36" etag="6ERaE96aQMBkwNNVUZOM" version="22.1.5" type="github">
  <diagram name="第 1 页" id="00KEmwRQzMvBNhWXRBMC">
    <mxGraphModel dx="1500" dy="790" grid="1" gridSize="10" guides="1" tooltips="1" connect="1" arrows="1" fold="1" page="1" pageScale="1" pageWidth="827" pageHeight="1169" math="0" shadow="0">
      <root>
        <mxCell id="0" />
        <mxCell id="1" parent="0" />
        <mxCell id="EZCdKVQnehtWbuovEvaA-34" value="HTTP/HTTPS Requests" style="edgeStyle=orthogonalEdgeStyle;rounded=0;orthogonalLoop=1;jettySize=auto;labelBorderColor=none;html=1;" edge="1" parent="1" source="EZCdKVQnehtWbuovEvaA-17" target="EZCdKVQnehtWbuovEvaA-33">
          <mxGeometry y="70" relative="1" as="geometry">
            <mxPoint as="offset" />
          </mxGeometry>
        </mxCell>
        <mxCell id="EZCdKVQnehtWbuovEvaA-17" value="Web Browser" style="rounded=0;whiteSpace=wrap;html=1;" vertex="1" parent="1">
          <mxGeometry x="340" y="50" width="120" height="60" as="geometry" />
        </mxCell>
        <mxCell id="EZCdKVQnehtWbuovEvaA-38" value="User Session Validation" style="edgeStyle=orthogonalEdgeStyle;rounded=0;orthogonalLoop=1;jettySize=auto;html=1;" edge="1" parent="1" source="EZCdKVQnehtWbuovEvaA-33" target="EZCdKVQnehtWbuovEvaA-37">
          <mxGeometry x="0.6667" y="-36" relative="1" as="geometry">
            <Array as="points">
              <mxPoint x="360" y="260" />
              <mxPoint x="310" y="260" />
            </Array>
            <mxPoint x="16" y="-30" as="offset" />
          </mxGeometry>
        </mxCell>
        <mxCell id="EZCdKVQnehtWbuovEvaA-47" style="edgeStyle=orthogonalEdgeStyle;rounded=0;orthogonalLoop=1;jettySize=auto;html=1;exitX=0.5;exitY=1;exitDx=0;exitDy=0;entryX=1;entryY=0.5;entryDx=0;entryDy=0;" edge="1" parent="1" source="EZCdKVQnehtWbuovEvaA-33" target="EZCdKVQnehtWbuovEvaA-41">
          <mxGeometry relative="1" as="geometry">
            <mxPoint x="370" y="420" as="targetPoint" />
          </mxGeometry>
        </mxCell>
        <mxCell id="EZCdKVQnehtWbuovEvaA-33" value="Web Server/API" style="rounded=0;whiteSpace=wrap;html=1;" vertex="1" parent="1">
          <mxGeometry x="340" y="150" width="120" height="60" as="geometry" />
        </mxCell>
        <mxCell id="EZCdKVQnehtWbuovEvaA-42" value="User&amp;nbsp;Credentials" style="edgeStyle=orthogonalEdgeStyle;rounded=0;orthogonalLoop=1;jettySize=auto;html=1;" edge="1" parent="1" source="EZCdKVQnehtWbuovEvaA-37" target="EZCdKVQnehtWbuovEvaA-41">
          <mxGeometry relative="1" as="geometry" />
        </mxCell>
        <mxCell id="EZCdKVQnehtWbuovEvaA-37" value="Authentication" style="whiteSpace=wrap;html=1;rounded=0;" vertex="1" parent="1">
          <mxGeometry x="230" y="280" width="120" height="60" as="geometry" />
        </mxCell>
        <mxCell id="EZCdKVQnehtWbuovEvaA-44" value="Data Storage and Retrieval" style="edgeStyle=orthogonalEdgeStyle;rounded=0;orthogonalLoop=1;jettySize=auto;html=1;" edge="1" parent="1" source="EZCdKVQnehtWbuovEvaA-39" target="EZCdKVQnehtWbuovEvaA-43">
          <mxGeometry relative="1" as="geometry" />
        </mxCell>
        <mxCell id="EZCdKVQnehtWbuovEvaA-39" value="Database" style="rounded=0;whiteSpace=wrap;html=1;" vertex="1" parent="1">
          <mxGeometry x="440" y="280" width="120" height="60" as="geometry" />
        </mxCell>
        <mxCell id="EZCdKVQnehtWbuovEvaA-46" value="Processed Data" style="edgeStyle=orthogonalEdgeStyle;rounded=0;orthogonalLoop=1;jettySize=auto;html=1;" edge="1" parent="1" source="EZCdKVQnehtWbuovEvaA-41" target="EZCdKVQnehtWbuovEvaA-45">
          <mxGeometry relative="1" as="geometry" />
        </mxCell>
        <mxCell id="EZCdKVQnehtWbuovEvaA-41" value="Real-Time Data Processing" style="whiteSpace=wrap;html=1;rounded=0;" vertex="1" parent="1">
          <mxGeometry x="230" y="390" width="120" height="60" as="geometry" />
        </mxCell>
        <mxCell id="EZCdKVQnehtWbuovEvaA-52" value="" style="edgeStyle=orthogonalEdgeStyle;rounded=0;orthogonalLoop=1;jettySize=auto;html=1;" edge="1" parent="1" source="EZCdKVQnehtWbuovEvaA-43" target="EZCdKVQnehtWbuovEvaA-51">
          <mxGeometry relative="1" as="geometry">
            <Array as="points">
              <mxPoint x="470" y="530" />
              <mxPoint x="470" y="530" />
            </Array>
          </mxGeometry>
        </mxCell>
        <mxCell id="EZCdKVQnehtWbuovEvaA-56" value="Locker Status&lt;br&gt;&amp;nbsp;and command" style="edgeLabel;html=1;align=center;verticalAlign=middle;resizable=0;points=[];" vertex="1" connectable="0" parent="EZCdKVQnehtWbuovEvaA-52">
          <mxGeometry x="-0.2047" y="1" relative="1" as="geometry">
            <mxPoint x="-41" as="offset" />
          </mxGeometry>
        </mxCell>
        <mxCell id="EZCdKVQnehtWbuovEvaA-43" value="Locker Hardware" style="rounded=0;whiteSpace=wrap;html=1;" vertex="1" parent="1">
          <mxGeometry x="440" y="390" width="120" height="60" as="geometry" />
        </mxCell>
        <mxCell id="EZCdKVQnehtWbuovEvaA-54" value="" style="edgeStyle=orthogonalEdgeStyle;rounded=0;orthogonalLoop=1;jettySize=auto;html=1;" edge="1" parent="1" source="EZCdKVQnehtWbuovEvaA-45" target="EZCdKVQnehtWbuovEvaA-53">
          <mxGeometry relative="1" as="geometry" />
        </mxCell>
        <mxCell id="EZCdKVQnehtWbuovEvaA-55" value="Notifications, Alerts, Emails" style="edgeLabel;html=1;align=center;verticalAlign=middle;resizable=0;points=[];" vertex="1" connectable="0" parent="EZCdKVQnehtWbuovEvaA-54">
          <mxGeometry x="0.0533" relative="1" as="geometry">
            <mxPoint as="offset" />
          </mxGeometry>
        </mxCell>
        <mxCell id="EZCdKVQnehtWbuovEvaA-45" value="Notifications &amp; Alerts System" style="whiteSpace=wrap;html=1;rounded=0;" vertex="1" parent="1">
          <mxGeometry x="230" y="500" width="120" height="60" as="geometry" />
        </mxCell>
        <mxCell id="EZCdKVQnehtWbuovEvaA-50" value="Data Queries and Commands to/from Database" style="endArrow=classic;startArrow=classic;html=1;rounded=0;exitX=0.75;exitY=1;exitDx=0;exitDy=0;entryX=0.5;entryY=0;entryDx=0;entryDy=0;" edge="1" parent="1" source="EZCdKVQnehtWbuovEvaA-33" target="EZCdKVQnehtWbuovEvaA-39">
          <mxGeometry x="1" y="117" width="50" height="50" relative="1" as="geometry">
            <mxPoint x="450" y="250" as="sourcePoint" />
            <mxPoint x="500" y="200" as="targetPoint" />
            <mxPoint x="27" y="43" as="offset" />
          </mxGeometry>
        </mxCell>
        <mxCell id="EZCdKVQnehtWbuovEvaA-57" style="edgeStyle=orthogonalEdgeStyle;rounded=0;orthogonalLoop=1;jettySize=auto;html=1;exitX=0.75;exitY=0;exitDx=0;exitDy=0;entryX=0.75;entryY=1;entryDx=0;entryDy=0;" edge="1" parent="1" source="EZCdKVQnehtWbuovEvaA-51" target="EZCdKVQnehtWbuovEvaA-43">
          <mxGeometry relative="1" as="geometry" />
        </mxCell>
        <mxCell id="EZCdKVQnehtWbuovEvaA-58" value="Sensor Data,&lt;br&gt;&amp;nbsp;Access Control Commands" style="edgeLabel;html=1;align=center;verticalAlign=middle;resizable=0;points=[];" vertex="1" connectable="0" parent="EZCdKVQnehtWbuovEvaA-57">
          <mxGeometry x="0.1341" relative="1" as="geometry">
            <mxPoint x="70" y="-4" as="offset" />
          </mxGeometry>
        </mxCell>
        <mxCell id="EZCdKVQnehtWbuovEvaA-62" value="" style="edgeStyle=orthogonalEdgeStyle;rounded=0;orthogonalLoop=1;jettySize=auto;html=1;" edge="1" parent="1" source="EZCdKVQnehtWbuovEvaA-51" target="EZCdKVQnehtWbuovEvaA-61">
          <mxGeometry relative="1" as="geometry" />
        </mxCell>
        <mxCell id="EZCdKVQnehtWbuovEvaA-51" value="External Services" style="rounded=0;whiteSpace=wrap;html=1;" vertex="1" parent="1">
          <mxGeometry x="440" y="600" width="120" height="60" as="geometry" />
        </mxCell>
        <mxCell id="EZCdKVQnehtWbuovEvaA-60" value="" style="edgeStyle=orthogonalEdgeStyle;rounded=0;orthogonalLoop=1;jettySize=auto;html=1;" edge="1" parent="1" source="EZCdKVQnehtWbuovEvaA-53" target="EZCdKVQnehtWbuovEvaA-59">
          <mxGeometry relative="1" as="geometry" />
        </mxCell>
        <mxCell id="EZCdKVQnehtWbuovEvaA-53" value="Security" style="whiteSpace=wrap;html=1;rounded=0;" vertex="1" parent="1">
          <mxGeometry x="230" y="600" width="120" height="60" as="geometry" />
        </mxCell>
        <mxCell id="EZCdKVQnehtWbuovEvaA-59" value="Security Protocols, Data Encryption Compliance" style="whiteSpace=wrap;html=1;rounded=0;" vertex="1" parent="1">
          <mxGeometry x="230" y="690" width="120" height="60" as="geometry" />
        </mxCell>
        <mxCell id="EZCdKVQnehtWbuovEvaA-61" value="Integration with Third-Party Services (Map, Camera)" style="whiteSpace=wrap;html=1;rounded=0;" vertex="1" parent="1">
          <mxGeometry x="440" y="690" width="120" height="60" as="geometry" />
        </mxCell>
      </root>
    </mxGraphModel>
  </diagram>
</mxfile>
